<!DOCTYPE svg PUBLIC "-//W3C//DTD SVG 1.1//EN" "http://www.w3.org/Graphics/SVG/1.1/DTD/svg11.dtd">

<!-- Uploaded to: SVG Repo, www.svgrepo.com, Transformed by: SVG Repo Mixer Tools -->
<svg fill="#FF3D3D" version="1.1" id="Capa_1" xmlns="http://www.w3.org/2000/svg" xmlns:xlink="http://www.w3.org/1999/xlink" width="30px" height="30px" viewBox="0 0 332.14 332.14" xml:space="preserve">

<g id="SVGRepo_bgCarrier" stroke-width="0"/>

<g id="SVGRepo_tracerCarrier" stroke-linecap="round" stroke-linejoin="round" stroke="#CCCCCC" stroke-width="1.99287"/>

<g id="SVGRepo_iconCarrier"> <g> <g> <path d="M121.114,0H25.558c-8.017,0-14.517,6.5-14.517,14.515v303.114c0,8.017,6.5,14.517,14.517,14.517h95.556 c8.017,0,14.517-6.5,14.517-14.517V14.515C135.631,6.499,129.131,0,121.114,0z M106.6,303.113H40.072V29.031H106.6V303.113z"/> <path d="M306.586,0h-95.541c-8.018,0-14.518,6.5-14.518,14.515v303.114c0,8.017,6.5,14.517,14.518,14.517h95.541 c8.016,0,14.518-6.5,14.518-14.517V14.515C321.102,6.499,314.602,0,306.586,0z M292.073,303.113h-66.514V29.031h66.514V303.113z"/> </g> </g> </g>

</svg>