<?xml version="1.0" encoding="UTF-8"?>
<svg version="1.1" xmlns="http://www.w3.org/2000/svg" width="50" height="50">
<path d="M0 0 C0 14.52 0 29.04 0 44 C-6 44 -6 44 -8.89453125 41.41015625 C-9.87695168 40.30285749 -10.84929732 39.18655562 -11.8125 38.0625 C-16.56884271 32.74681195 -16.56884271 32.74681195 -23.25 30.75 C-24.4875 30.8325 -25.725 30.915 -27 31 C-27 25.06 -27 19.12 -27 13 C-25.7625 13.0825 -24.525 13.165 -23.25 13.25 C-17.18946679 12.68511618 -14.09460183 8.6007083 -10.33886719 4.21777344 C-6.54818407 -0.05475445 -6.24166245 0 0 0 Z M-4 3 C-5.9822267 4.95531865 -7.96085116 6.91405666 -9.9375 8.875 C-10.50146484 9.43058594 -11.06542969 9.98617188 -11.64648438 10.55859375 C-15.45036405 14.3396957 -17.16977074 16.29179741 -17.5 21.625 C-17.44595295 26.9833787 -15.73120666 29.44897209 -12.0234375 33.171875 C-11.35570312 33.77515625 -10.68796875 34.3784375 -10 35 C-9.33226562 35.60328125 -8.66453125 36.2065625 -7.9765625 36.828125 C-6.34627431 38.25213183 -4.67685702 39.63113713 -3 41 C-1.60476145 39.83251001 -1.60476145 39.83251001 -1.88647461 36.58178711 C-1.88663372 35.06363012 -1.89232774 33.54546771 -1.90234375 32.02734375 C-1.9037587 31.22970108 -1.90517365 30.43205841 -1.90663147 29.61024475 C-1.91224684 27.05262565 -1.92480188 24.49509282 -1.9375 21.9375 C-1.94251302 20.20768355 -1.94707627 18.47786574 -1.95117188 16.74804688 C-1.96222125 12.49866447 -1.97949614 8.24934688 -2 4 C-2.66 3.67 -3.32 3.34 -4 3 Z M-24 15 C-25.30547755 16.08169646 -25.30547755 16.08169646 -25.1328125 18.6875 C-25.13023438 19.780625 -25.12765625 20.87375 -25.125 22 C-25.12757812 23.093125 -25.13015625 24.18625 -25.1328125 25.3125 C-25.30547755 27.91830354 -25.30547755 27.91830354 -24 29 C-22.35 29 -20.7 29 -19 29 C-19 24.38 -19 19.76 -19 15 C-20.65 15 -22.3 15 -24 15 Z " fill="#FF3D3D" transform="translate(29,3)"/>
<path d="M0 0 C5.31901517 -0.50657287 7.86484812 0.67389957 12 4 C16.83106777 9.48391476 17.35024743 12.80539399 17.28125 20.015625 C16.77938024 25.34102075 14.24614624 27.9022045 10.375 31.3125 C6.64454088 33.96308938 4.55864123 34.0991009 0 34 C0 33.01 0 32.02 0 31 C1.051875 30.773125 2.10375 30.54625 3.1875 30.3125 C7.17177382 29.18914491 9.31180498 27.16258237 12 24 C13.84467846 20.31064308 13.35009552 16.03564658 13 12 C11.28499686 7.75762381 9.10034104 5.95254335 5 4 C2.30745009 3.29329272 2.30745009 3.29329272 0 3 C0 2.01 0 1.02 0 0 Z " fill="#FF3D3D" transform="translate(31,8)"/>
<path d="M0 0 C3.91601134 0.22592373 6.32602376 0.46427529 9.4375 2.9375 C11.67873478 7.33032016 11.77033032 11.16359626 11 16 C9.4375 19.0625 9.4375 19.0625 7 21 C3.25 21.8125 3.25 21.8125 0 22 C0 21.01 0 20.02 0 19 C0.78375 18.71125 1.5675 18.4225 2.375 18.125 C5.09671632 17.15087746 5.09671632 17.15087746 7 15 C7.57433115 9.75211662 7.57433115 9.75211662 5.75 5.0625 C3.83875922 3.90210381 2.19702465 3.37879735 0 3 C0 2.01 0 1.02 0 0 Z " fill="#FF3F3F" transform="translate(31,14)"/>
<path d="M0 0 C3.875 0.875 3.875 0.875 5 2 C5.1875 4.9375 5.1875 4.9375 5 8 C4.34 8.66 3.68 9.32 3 10 C2.01 10 1.02 10 0 10 C0 9.01 0 8.02 0 7 C0.66 7 1.32 7 2 7 C2 5.68 2 4.36 2 3 C1.34 3 0.68 3 0 3 C0 2.01 0 1.02 0 0 Z " fill="#FF3E3E" transform="translate(31,20)"/>
</svg>
